<svg width="11" height="25" viewBox="0 0 11 25" fill="none" xmlns="http://www.w3.org/2000/svg">
<path d="M4.26696 0.118949C5.40921 0.540494 6.47667 1.14562 7.46935 1.93431C8.46202 2.70941 9.3799 3.52531 10.223 4.382L5.93954 10.2768C5.09645 9.52893 4.18537 8.80142 3.2063 8.09432C2.22723 7.37361 1.17336 6.6937 0.0447084 6.05458L4.26696 0.118949ZM4.26696 14.1523C5.40921 14.5739 6.47667 15.179 7.46935 15.9677C8.46202 16.7428 9.3799 17.5587 10.223 18.4154L5.93954 24.3102C5.09645 23.5623 4.18537 22.8348 3.2063 22.1277C2.22723 21.407 1.17336 20.7271 0.0447084 20.088L4.26696 14.1523Z" fill="white"/>
</svg>
