<svg width="18" height="15" viewBox="0 0 18 15" fill="none" xmlns="http://www.w3.org/2000/svg">
<path d="M4.46094 7.40625C3.3151 7.40625 2.40365 7.10677 1.72656 6.50781C1.05469 5.90365 0.71875 5.0651 0.71875 3.99219C0.71875 3.35156 0.869792 2.77865 1.17188 2.27344C1.47917 1.76823 1.91406 1.36979 2.47656 1.07812C3.03906 0.786458 3.70573 0.640625 4.47656 0.640625C5.2474 0.640625 5.91146 0.786458 6.46875 1.07812C7.03125 1.36979 7.46354 1.76823 7.76562 2.27344C8.07292 2.77865 8.22656 3.35156 8.22656 3.99219C8.22656 5.0651 7.89062 5.90365 7.21875 6.50781C6.54688 7.10677 5.6276 7.40625 4.46094 7.40625ZM3.42969 14C3.9401 13.3281 4.40885 12.6667 4.83594 12.0156C5.26302 11.3594 5.72656 10.6146 6.22656 9.78125L8.95312 5.23438C9.45833 4.38021 9.90104 3.61979 10.2812 2.95312C10.6667 2.28646 11.0104 1.60677 11.3125 0.914062H14.6797C14.1589 1.60677 13.6823 2.28646 13.25 2.95312C12.8177 3.61979 12.349 4.38021 11.8438 5.23438L9.10938 9.78125C8.60938 10.6146 8.17708 11.3594 7.8125 12.0156C7.45312 12.6667 7.1276 13.3281 6.83594 14H3.42969ZM4.47656 5.40625C4.88281 5.36458 5.20833 5.22656 5.45312 4.99219C5.70312 4.75781 5.82812 4.4375 5.82812 4.03125C5.82812 3.67188 5.70573 3.36458 5.46094 3.10938C5.21615 2.84896 4.88802 2.69531 4.47656 2.64844C4.07031 2.69531 3.74219 2.84375 3.49219 3.09375C3.24219 3.34375 3.11719 3.65625 3.11719 4.03125C3.11719 4.4375 3.24479 4.75781 3.5 4.99219C3.75521 5.22656 4.08073 5.36458 4.47656 5.40625ZM13.6406 14.2578C12.4948 14.2578 11.5833 13.9583 10.9062 13.3594C10.2344 12.7604 9.89844 11.9245 9.89844 10.8516C9.89844 10.2109 10.0495 9.63802 10.3516 9.13281C10.6589 8.6276 11.0938 8.22917 11.6562 7.9375C12.2188 7.64062 12.8854 7.49219 13.6562 7.49219C14.4271 7.49219 15.0938 7.64062 15.6562 7.9375C16.2188 8.22917 16.6536 8.6276 16.9609 9.13281C17.2682 9.63802 17.4219 10.2109 17.4219 10.8516C17.4219 11.9245 17.0833 12.7604 16.4062 13.3594C15.7292 13.9583 14.8073 14.2578 13.6406 14.2578ZM13.6406 12.2656C14.0469 12.224 14.375 12.0859 14.625 11.8516C14.875 11.6172 15 11.2969 15 10.8906C15 10.526 14.8776 10.2188 14.6328 9.96875C14.388 9.71354 14.0599 9.5625 13.6484 9.51562C13.2422 9.5625 12.9115 9.71094 12.6562 9.96094C12.4062 10.2057 12.2812 10.5156 12.2812 10.8906C12.2812 11.2969 12.4089 11.6172 12.6641 11.8516C12.9193 12.0859 13.2448 12.224 13.6406 12.2656Z" fill="white"/>
</svg>
