<svg width="26" height="22" viewBox="0 0 26 22" fill="none" xmlns="http://www.w3.org/2000/svg">
<path d="M5.8055 10.4961C4.02787 10.4961 2.61386 10.0315 1.56344 9.10225C0.521106 8.16495 -6.10352e-05 6.86406 -6.10352e-05 5.19955C-6.10352e-05 4.2057 0.234262 3.31689 0.702909 2.53312C1.17964 1.74934 1.85432 1.13122 2.72698 0.678729C3.59963 0.226243 4.63388 0 5.82974 0C7.0256 0 8.05581 0.226243 8.92038 0.678729C9.79304 1.13122 10.4637 1.74934 10.9323 2.53312C11.4091 3.31689 11.6474 4.2057 11.6474 5.19955C11.6474 6.86406 11.1263 8.16495 10.0839 9.10225C9.04159 10.0315 7.61545 10.4961 5.8055 10.4961ZM4.20564 20.7255C4.99749 19.6832 5.7247 18.657 6.38727 17.647C7.04984 16.6289 7.76897 15.4734 8.54466 14.1806L12.7746 7.12666C13.5584 5.80152 14.2452 4.62182 14.835 3.58757C15.433 2.55332 15.9662 1.49886 16.4349 0.424206H21.6587C20.8507 1.49886 20.1113 2.55332 19.4407 3.58757C18.77 4.62182 18.0428 5.80152 17.2591 7.12666L13.017 14.1806C12.2413 15.4734 11.5707 16.6289 11.0051 17.647C10.4475 18.657 9.94252 19.6832 9.49003 20.7255H4.20564ZM5.82974 7.3933C6.45999 7.32866 6.965 7.11454 7.34476 6.75093C7.73261 6.38733 7.92653 5.8904 7.92653 5.26015C7.92653 4.70263 7.73665 4.2259 7.35688 3.82997C6.97712 3.42597 6.46807 3.1876 5.82974 3.11488C5.19949 3.1876 4.69044 3.41789 4.3026 3.80573C3.91475 4.19358 3.72083 4.67839 3.72083 5.26015C3.72083 5.8904 3.91879 6.38733 4.31472 6.75093C4.71064 7.11454 5.21565 7.32866 5.82974 7.3933ZM20.0467 21.1255C18.2691 21.1255 16.8551 20.6608 15.8046 19.7316C14.7623 18.8024 14.2411 17.5056 14.2411 15.8411C14.2411 14.8472 14.4755 13.9584 14.9441 13.1746C15.4208 12.3909 16.0955 11.7727 16.9682 11.3202C17.8408 10.8597 18.8751 10.6294 20.0709 10.6294C21.2668 10.6294 22.3011 10.8597 23.1737 11.3202C24.0464 11.7727 24.721 12.3909 25.1978 13.1746C25.6745 13.9584 25.9129 14.8472 25.9129 15.8411C25.9129 17.5056 25.3877 18.8024 24.3372 19.7316C23.2868 20.6608 21.8566 21.1255 20.0467 21.1255ZM20.0467 18.0348C20.6769 17.9702 21.186 17.756 21.5738 17.3924C21.9617 17.0288 22.1556 16.5319 22.1556 15.9017C22.1556 15.3361 21.9657 14.8593 21.586 14.4715C21.2062 14.0756 20.6971 13.8412 20.0588 13.7685C19.4286 13.8412 18.9155 14.0715 18.5196 14.4594C18.1317 14.8391 17.9378 15.3199 17.9378 15.9017C17.9378 16.5319 18.1358 17.0288 18.5317 17.3924C18.9276 17.756 19.4326 17.9702 20.0467 18.0348Z" fill="white"/>
</svg>
