<svg width="30" height="29" viewBox="0 0 30 29" fill="none" xmlns="http://www.w3.org/2000/svg">
<path fill-rule="evenodd" clip-rule="evenodd" d="M8.09883 10.1339H3.00623C3.00623 6.04501 5.45624 3.65634 9.60735 3.65634H20.4773C24.6284 3.65634 27.0784 6.04501 27.0784 10.0818V18.8958C27.0784 22.9326 24.6284 25.3213 20.4773 25.3213H9.60735C5.45624 25.3213 3.00623 22.9326 3.00623 18.8958V18.5203H8.09883C10.4623 18.5203 12.3783 16.6523 12.3783 14.348C12.3783 12.0437 10.4623 10.1756 8.09883 10.1756V10.1339ZM8.099 11.928H3.9051C3.40877 11.928 3.00641 12.3203 3.00641 12.8042V15.85C3.01219 16.3316 3.41118 16.7206 3.9051 16.7262H8.00271C9.19923 16.7419 10.2455 15.9432 10.5169 14.8069C10.6528 14.1016 10.462 13.3737 9.99567 12.8185C9.5293 12.2632 8.83506 11.9372 8.099 11.928ZM7.91706 15.1303H7.5212C7.01305 15.1303 6.60111 14.7287 6.60111 14.2333C6.60111 13.7378 7.01305 13.3362 7.5212 13.3362H7.91706C8.16009 13.3334 8.39415 13.4256 8.56702 13.5922C8.73988 13.7588 8.83716 13.9859 8.83714 14.2228C8.83718 14.72 8.42693 15.1246 7.91706 15.1303ZM21.3758 10.1339H14.5821C14.0739 10.1339 13.662 9.73229 13.662 9.23686C13.662 8.74143 14.0739 8.33981 14.5821 8.33981H21.3758C21.8798 8.33978 22.29 8.73508 22.2959 9.22643C22.2959 9.72358 21.8857 10.1282 21.3758 10.1339Z" fill="white"/>
</svg>
